<svg xmlns="http://www.w3.org/2000/svg" version="1.1" xmlns:xlink="http://www.w3.org/1999/xlink" width="512" height="512" x="0" y="0" viewBox="0 0 24 24" style="enable-background:new 0 0 512 512" xml:space="preserve" class=""><g><path d="M12 22.75A10.75 10.75 0 1 1 22.75 12 10.76 10.76 0 0 1 12 22.75zm0-20A9.25 9.25 0 1 0 21.25 12 9.26 9.26 0 0 0 12 2.75z" fill="#000000" opacity="1" data-original="#000000"/><path d="M16 12.75H8a.75.75 0 0 1 0-1.5h8a.75.75 0 0 1 0 1.5z" fill="#000000" opacity="1" data-original="#000000"/><path d="M12 16.75a.76.76 0 0 1-.75-.75V8a.75.75 0 0 1 1.5 0v8a.76.76 0 0 1-.75.75z" fill="#000000" opacity="1" data-original="#000000"/></g></svg>