<svg width="15" height="11" viewBox="0 0 15 11" fill="none" xmlns="http://www.w3.org/2000/svg">
<path d="M11.8115 2.38163C10.5112 1.45122 9.11957 0.979492 7.67562 0.979492C6.37622 0.979492 5.10954 1.38294 3.91066 2.1737C2.70167 2.97284 1.51648 4.42432 0.54483 5.94501C1.3306 7.31053 2.40545 8.71453 3.52492 9.51956C4.80915 10.4425 6.20551 10.9105 7.67562 10.9105C9.13295 10.9105 10.5263 10.4428 11.8186 9.52049C12.9562 8.70708 14.0388 7.30494 14.8207 5.94501C14.0361 4.59718 12.95 3.1966 11.8115 2.38163ZM7.68276 8.92432C7.11806 8.92432 6.56604 8.74959 6.09651 8.42222C5.62698 8.09484 5.26103 7.62954 5.04493 7.08514C4.82882 6.54074 4.77228 5.9417 4.88245 5.36378C4.99262 4.78585 5.26455 4.25498 5.66385 3.83832C6.06315 3.42166 6.5719 3.1379 7.12574 3.02295C7.67959 2.90799 8.25367 2.96699 8.77539 3.19249C9.2971 3.41798 9.74302 3.79985 10.0567 4.28979C10.3705 4.77974 10.5379 5.35576 10.5379 5.94501C10.5371 6.73489 10.236 7.49217 9.70072 8.0507C9.16545 8.60924 8.43973 8.92342 7.68276 8.92432Z" fill="#CACACA"/>
</svg>
