<svg width="65" height="65" viewBox="0 0 65 65" fill="none" xmlns="http://www.w3.org/2000/svg">
<g clip-path="url(#clip0_1_6415)">
<path d="M62.8408 21.2665L36.9301 8.60899C34.6964 7.49215 30.8992 7.49215 28.6655 8.60899L2.15922 21.2665C0.297824 22.16 0 23.4257 0 24.0958C0 24.7659 0.297824 25.9572 2.15922 26.9251L4.31844 27.9675V39.8805C2.97824 40.4017 2.01031 41.7419 2.01031 43.231C2.01031 44.7201 2.97824 46.0603 4.24399 46.5815L0.893471 57.2287H10.2749L6.9244 46.5815C8.2646 46.0603 9.15808 44.7201 9.15808 43.231C9.15808 41.6674 8.19015 40.4017 6.84994 39.8805V29.2333L10.7961 31.1691V46.656C10.7961 46.8793 10.8706 47.1027 11.0195 47.3261C11.3918 47.7728 18.3162 57.2287 32.4628 57.2287C46.6094 57.2287 53.5338 47.6983 53.8316 47.3261C53.9805 47.1027 54.055 46.8793 54.055 46.656V31.2436L62.8408 26.9251C64.7022 26.0317 65 24.7659 65 24.0958C64.9255 23.4257 64.7022 22.16 62.8408 21.2665ZM51.6724 46.2837C50.4811 47.7728 44.0779 54.9206 32.4628 54.9206C20.8477 54.9206 14.4444 47.7728 13.2531 46.2837V32.2115L28.6655 39.5826C29.7824 40.1038 31.2715 40.4017 32.7606 40.4017C34.3242 40.4017 35.8133 40.1038 36.9301 39.5082L51.6724 32.286V46.2837ZM61.7984 24.8404L52.8637 29.2333C52.4914 29.2333 52.1936 29.3822 52.0447 29.68L35.8877 37.4979C34.3242 38.3169 31.2715 38.3169 29.6334 37.4979L9.75372 27.9675L32.6117 25.2871C33.2818 25.2127 33.7285 24.617 33.6541 24.0214C33.5796 23.3513 32.984 22.9045 32.3883 22.979L5.88202 26.1061L3.2016 24.8404C2.5315 24.5426 2.38259 24.1703 2.38259 24.1703C2.38259 24.0958 2.5315 23.798 3.2016 23.5002L29.7079 10.7682C30.5269 10.3959 31.6438 10.1726 32.7606 10.1726C33.9519 10.1726 35.1432 10.3959 35.8877 10.7682L61.7984 23.4257C62.4685 23.7235 62.6174 24.0214 62.6174 24.1703C62.6174 24.1703 62.394 24.5426 61.7984 24.8404Z" fill="#878787"/>
</g>
<defs>
<clipPath id="clip0_1_6415">
<rect width="65" height="65" fill="white"/>
</clipPath>
</defs>
</svg>
