<svg width="33" height="33" viewBox="0 0 33 33" fill="none" xmlns="http://www.w3.org/2000/svg">
<g clip-path="url(#clip0_1_6426)">
<path d="M30.293 11.6016H21.228C21.2567 11.2836 21.2723 10.9616 21.2723 10.636C21.2723 4.77129 16.5008 0 10.636 0C8.76789 0 6.93022 0.491455 5.32166 1.42099C5.0135 1.59899 4.908 1.99326 5.08601 2.30143C5.26426 2.60985 5.65853 2.71509 5.9667 2.53709C7.37938 1.7206 8.99398 1.28906 10.636 1.28906C15.79 1.28906 19.9832 5.48204 19.9832 10.636C19.9832 15.79 15.79 19.9832 10.636 19.9832C8.47861 19.9832 6.45186 19.2685 4.77482 17.9165C4.60664 17.781 4.38382 17.7405 4.18089 17.8027L2.47012 18.2501L3.14033 16.7772C3.23676 16.5657 3.21158 16.319 3.07487 16.1309C1.90665 14.5264 1.28906 12.6263 1.28906 10.636C1.28906 8.9897 1.72286 7.37107 2.54363 5.95537C2.72214 5.6472 2.61715 5.25293 2.30923 5.07442C2.00132 4.89592 1.60705 5.00066 1.42829 5.30882C0.493973 6.92065 0 8.76286 0 10.636C0 12.7733 0.626152 14.8199 1.81451 16.5786L0.73542 18.9495C0.632195 19.1758 0.668701 19.4412 0.828827 19.6315C0.988953 19.8219 1.24425 19.9029 1.48494 19.84L4.22596 19.1234C6.06338 20.5115 8.32654 21.2723 10.636 21.2723C11.1388 21.2723 11.633 21.2363 12.1172 21.1686V26.8125C12.1172 28.305 13.3315 29.5195 14.824 29.5195H23.9398L28.0157 32.8542C28.133 32.9504 28.2778 32.9997 28.4238 32.9997C28.5177 32.9997 28.6119 32.9794 28.6998 32.9378C28.9249 32.8311 29.0684 32.6045 29.0684 32.3552V29.5195H30.293C31.7857 29.5195 33 28.305 33 26.8125V14.3086C33 12.8158 31.7857 11.6016 30.293 11.6016ZM31.7109 26.8125C31.7109 27.5942 31.075 28.2305 30.293 28.2305H28.4238C28.0678 28.2305 27.7793 28.519 27.7793 28.875V30.9952L24.5959 28.3906C24.4204 28.2305 24.2669 28.2305 23.9217 28.2305H14.824C14.0422 28.2305 13.4062 27.5942 13.4062 26.8125V20.9055C17.2188 19.876 20.1892 16.7757 21.0309 12.8906H30.293C31.075 12.8906 31.7109 13.5266 31.7109 14.3086V26.8125Z" fill="#878787"/>
<path d="M25.765 22.4687C25.9835 22.3657 26.1351 22.1439 26.1351 21.8861C26.1351 21.5303 25.8466 21.2415 25.4906 21.2415H25.2267L23.1481 16.5042C23.0451 16.2698 22.8135 16.1185 22.5577 16.1185C22.3019 16.1185 22.0703 16.2698 21.9675 16.5042L19.8889 21.2415H19.6251C19.2691 21.2415 18.9805 21.5303 18.9805 21.8861C18.9805 22.1439 19.1321 22.3657 19.3506 22.4687L18.5764 24.2331C18.4334 24.5591 18.5817 24.9393 18.9075 25.0823C19.2336 25.2253 19.6137 25.077 19.7567 24.751L20.7311 22.5306H24.3845L25.3589 24.751C25.4649 24.9927 25.7013 25.1367 25.9495 25.1367C26.0359 25.1367 26.1238 25.1193 26.2081 25.0823C26.5339 24.9393 26.6824 24.5591 26.5392 24.2331L25.765 22.4687ZM21.2966 21.2415L22.5577 18.3673L23.8188 21.2415H21.2966Z" fill="#878787"/>
<path d="M3.56982 4.21521C3.73927 4.21521 3.90543 4.14623 4.02553 4.02638C4.14537 3.90654 4.21435 3.74037 4.21435 3.57068C4.21435 3.40124 4.14537 3.23507 4.02553 3.11498C3.90543 2.99513 3.73927 2.92615 3.56982 2.92615C3.39963 2.92615 3.23396 2.99513 3.11412 3.11498C2.99428 3.23507 2.92529 3.40124 2.92529 3.57068C2.92529 3.74037 2.99428 3.90654 3.11412 4.02638C3.23396 4.14648 3.40013 4.21521 3.56982 4.21521Z" fill="#878787"/>
<path d="M6.78942 14.5586C6.47723 14.7298 6.36292 15.1215 6.53413 15.4337C6.65145 15.6475 6.87225 15.7686 7.09985 15.7686C7.20459 15.7686 7.31084 15.7429 7.40928 15.689C8.84664 14.9007 9.95241 13.6746 10.5992 12.2287C11.2463 13.6746 12.3518 14.9007 13.7891 15.689C13.8876 15.7429 13.9938 15.7686 14.0986 15.7686C14.3262 15.7686 14.547 15.6475 14.6643 15.4337C14.8355 15.1215 14.7212 14.7298 14.409 14.5586C12.7264 13.6358 11.5939 11.9867 11.3127 10.1234H14.1743C14.5303 10.1234 14.8189 9.83485 14.8189 9.47885C14.8189 9.12285 14.5303 8.83432 14.1743 8.83432H11.2437V6.14844C11.2437 5.79243 10.9552 5.50391 10.5992 5.50391C10.2432 5.50391 9.95467 5.79243 9.95467 6.14844V8.83432H7.62631C7.2703 8.83432 6.98177 9.12285 6.98177 9.47885C6.98177 9.83485 7.2703 10.1234 7.62631 10.1234H9.88569C9.60446 11.9867 8.472 13.6361 6.78942 14.5586Z" fill="#878787"/>
</g>
<defs>
<clipPath id="clip0_1_6426">
<rect width="33" height="33" fill="white"/>
</clipPath>
</defs>
</svg>
