<svg width="13" height="13" viewBox="0 0 13 13" fill="none" xmlns="http://www.w3.org/2000/svg">
<path d="M6.38658 12.9036C6.19555 12.9033 6.00901 12.8431 5.85123 12.7307C3.51386 11.075 2.50176 9.93978 1.94352 9.23002C0.75386 7.71709 0.184313 6.16381 0.200373 4.48174C0.21911 2.55419 1.70112 0.986328 3.50405 0.986328C4.81504 0.986328 5.72305 1.75691 6.25185 2.39871C6.2686 2.41883 6.2893 2.43497 6.31254 2.44603C6.33579 2.45709 6.36103 2.46281 6.38658 2.46281C6.41213 2.46281 6.43737 2.45709 6.46062 2.44603C6.48386 2.43497 6.50456 2.41883 6.52131 2.39871C7.05011 1.75629 7.95811 0.986328 9.26911 0.986328C11.072 0.986328 12.554 2.55419 12.5728 4.48205C12.5888 6.16443 12.0187 7.71771 10.8296 9.23033C10.2714 9.94009 9.2593 11.0753 6.92192 12.731C6.76411 12.8433 6.57758 12.9034 6.38658 12.9036Z" fill="#CACACA"/>
</svg>
